# xmcd
#
# Track frame offsets:
#	150
#	61661
#	109131
#	135962
#	176502
#	214533
#	252800
#	286539
#
# Disc length: 4054 seconds
#
# Revision: 2
# Processed by: cddbd v1.5.1PL0 Copyright (c) Steve Scherf et al.
# Submitted via: audiograbber 1.83.01
#
DISCID=600fd408
DTITLE=Various Artist - Jazz at midnight (Jazz in Paris 101)
DYEAR=1900
DGENRE=Jazz
TTITLE0=Joe Newman - Blues on the Champs - Elysées
TTITLE1=Joe Newman - A girl named Rigmor
TTITLE2=Joe Newman - Lover man
TTITLE3=Un concert a minuit avec Cootie Williams - Night train
TTITLE4=Un concert a minuit avec Cootie Williams - Mood indigo
TTITLE5=Un concert a minuit avec Cootie Williams - Lil' darling
TTITLE6=Un concert a minuit avec Cootie Williams - Easy swing
TTITLE7=Un concert a minuit avec Cootie Williams - Three O'clock in the morning
EXTD=Joe Newman 1956\nCootie Williams 1959
EXTT0=
EXTT1=
EXTT2=
EXTT3=Un concert a minuit
EXTT4=Un concert a minuit
EXTT5=Un concert a minuit
EXTT6=Un concert a minuit
EXTT7=Un concert a minuit
PLAYORDER=
